<svg width="78" height="78" viewBox="0 0 78 78" fill="none" xmlns="http://www.w3.org/2000/svg">
<path d="M63.9746 62.0263C65.0556 62.0263 65.932 61.1499 65.932 60.0688C65.932 58.9877 65.0556 58.1113 63.9746 58.1113C62.8935 58.1113 62.0171 58.9877 62.0171 60.0688C62.0171 61.1499 62.8935 62.0263 63.9746 62.0263Z" fill="white"/>
<path d="M64.0483 10.0265C65.1294 10.0265 66.0058 9.15013 66.0058 8.06905C66.0058 6.98796 65.1294 6.11157 64.0483 6.11157C62.9672 6.11157 62.0908 6.98796 62.0908 8.06905C62.0908 9.15013 62.9672 10.0265 64.0483 10.0265Z" fill="white"/>
<path d="M69.7807 10.0265C70.8618 10.0265 71.7382 9.15013 71.7382 8.06905C71.7382 6.98796 70.8618 6.11157 69.7807 6.11157C68.6996 6.11157 67.8232 6.98796 67.8232 8.06905C67.8232 9.15013 68.6996 10.0265 69.7807 10.0265Z" fill="white"/>
<path d="M69.7968 62.0263C70.8779 62.0263 71.7543 61.1499 71.7543 60.0688C71.7543 58.9877 70.8779 58.1113 69.7968 58.1113C68.7157 58.1113 67.8394 58.9877 67.8394 60.0688C67.8394 61.1499 68.7157 62.0263 69.7968 62.0263Z" fill="white"/>
<path d="M63.9746 66.9477C65.0556 66.9477 65.932 66.0713 65.932 64.9902C65.932 63.9091 65.0556 63.0327 63.9746 63.0327C62.8935 63.0327 62.0171 63.9091 62.0171 64.9902C62.0171 66.0713 62.8935 66.9477 63.9746 66.9477Z" fill="white"/>
<path d="M69.7968 66.9477C70.8779 66.9477 71.7543 66.0713 71.7543 64.9902C71.7543 63.9091 70.8779 63.0327 69.7968 63.0327C68.7157 63.0327 67.8394 63.9091 67.8394 64.9902C67.8394 66.0713 68.7157 66.9477 69.7968 66.9477Z" fill="white"/>
<path d="M63.9746 71.8691C65.0556 71.8691 65.932 70.9927 65.932 69.9116C65.932 68.8305 65.0556 67.9541 63.9746 67.9541C62.8935 67.9541 62.0171 68.8305 62.0171 69.9116C62.0171 70.9927 62.8935 71.8691 63.9746 71.8691Z" fill="white"/>
<path d="M69.7968 71.8691C70.8779 71.8691 71.7543 70.9927 71.7543 69.9116C71.7543 68.8305 70.8779 67.9541 69.7968 67.9541C68.7157 67.9541 67.8394 68.8305 67.8394 69.9116C67.8394 70.9927 68.7157 71.8691 69.7968 71.8691Z" fill="white"/>
<path d="M37.943 26.0002H71.401C75.046 26.0002 78.0005 23.0455 78.0005 19.4007V6.59948C78.0005 2.95474 75.0457 0 71.401 0H37.7C34.0552 0 31.1005 2.95474 31.1005 6.59948V19.4005C31.1005 23.0455 28.1457 26 24.501 26H6.59948C2.95474 26 0 28.9547 0 32.5995V45.4005C0 49.0453 2.95474 52 6.59948 52H24.6004C28.2454 52 31.1999 54.9547 31.1999 58.5995V71.4005C31.1999 75.0453 34.1546 78 37.7994 78H71.8544C75.2485 78 78 75.2485 78 71.8544V58.1454C78 54.7513 75.2485 51.9998 71.8544 51.9998H62.7959C59.8778 51.9998 57.5122 49.6342 57.5122 46.7161V45.7982C57.5122 42.1535 54.5575 39.1987 50.9128 39.1987H37.9426C34.2978 39.1987 31.3431 36.244 31.3431 32.5993C31.3431 28.9545 34.2978 25.9998 37.9426 25.9998L37.943 26.0002ZM59.6946 6.39948C59.6946 5.03604 60.8101 3.92047 62.1736 3.92047H71.5913C72.9548 3.92047 74.0703 5.03604 74.0703 6.39948V19.577C74.0703 20.9405 72.9548 22.0561 71.5913 22.0561H62.1736C60.8101 22.0561 59.6946 20.9405 59.6946 19.577V6.39948ZM59.696 58.3993C59.696 57.0358 60.8115 55.9202 62.175 55.9202H71.5966C72.9601 55.9202 74.0756 57.0358 74.0756 58.3993V71.5816C74.0756 72.9451 72.9601 74.0607 71.5966 74.0607H62.175C60.8115 74.0607 59.696 72.9451 59.696 71.5816V58.3993Z" fill="white"/>
<path d="M66.8829 15.865C65.0294 15.865 63.1758 15.1595 61.7647 13.7485C61.2413 13.2249 61.2411 12.3763 61.7647 11.8529C62.2883 11.3297 63.1369 11.3295 63.6603 11.8529C65.4373 13.6299 68.3285 13.6299 70.1055 11.8529C70.6291 11.3295 71.4777 11.3297 72.0011 11.8529C72.5245 12.3765 72.5245 13.2251 72.0011 13.7485C70.59 15.1595 68.7363 15.865 66.8829 15.865Z" fill="white"/>
</svg>
