<svg width="1053" height="756" viewBox="0 0 1053 756" fill="none" xmlns="http://www.w3.org/2000/svg">
<path d="M367.902 252.654L987.783 252.655C1022.94 252.655 1051.43 224.17 1051.43 189.025V65.6292C1051.43 30.4848 1022.94 2 987.783 2H365.557C330.413 2 301.909 30.4847 301.909 65.6291V189.037C301.909 224.181 273.416 252.666 238.261 252.666H65.6479C30.4931 252.666 2 281.151 2 316.295V439.703C2 474.847 30.4931 503.333 65.6479 503.333H110.965C146.12 503.333 174.613 531.818 174.613 566.962V690.37C174.613 725.514 203.106 753.999 238.261 753.999L987.783 754C1020.51 754 1047.05 727.475 1047.05 694.754V562.591C1047.05 529.871 1020.51 503.345 987.783 503.345H900.423C872.281 503.345 849.475 480.534 849.475 452.412V443.566C849.475 408.422 820.982 379.937 785.827 379.937L367.924 379.936C332.77 379.936 304.276 351.451 304.276 316.306C304.276 281.162 332.77 252.677 367.924 252.677L367.902 252.654Z" stroke="#FFBCD9" stroke-width="3" stroke-miterlimit="10"/>
</svg>
