<svg width="262" height="21" viewBox="0 0 262 21" fill="none" xmlns="http://www.w3.org/2000/svg">
<path d="M37.4457 0.321289L20.8587 0.321289C19.8432 0.321289 19.02 1.14445 19.02 2.15999L19.02 17.1271C19.02 17.1271 19.02 17.1291 19.02 17.1303V18.7395C19.02 19.755 19.8432 20.5782 20.8587 20.5782C21.8743 20.5782 22.6974 19.755 22.6974 18.7395L22.6974 11.3792L35.6067 11.3792V18.8231C35.6067 19.8386 36.4299 20.6618 37.4454 20.6618C38.461 20.6618 39.2841 19.8386 39.2841 18.8231V17.1301C39.2841 17.1301 39.2841 17.1281 39.2841 17.1271V2.15999C39.2841 1.14445 38.4612 0.321289 37.4457 0.321289ZM35.6067 7.67634L22.6974 7.67634V4.02414L35.6067 4.02414V7.67634Z" fill="white"/>
<path d="M141.867 0.314209L125.365 0.314209C124.326 0.314209 123.483 1.15633 123.483 2.19508V18.6975C123.483 19.7362 124.326 20.5786 125.365 20.5786L141.867 20.5786C142.906 20.5786 143.748 19.7365 143.748 18.6975V2.19508C143.748 1.15633 142.906 0.314209 141.867 0.314209ZM140.048 16.8782L127.184 16.8782V4.01431L140.048 4.01431V16.8782Z" fill="white"/>
<path d="M119.93 0.0683594C118.915 0.0683594 118.091 0.89152 118.091 1.90706V3.36923C118.091 3.36923 118.091 3.37123 118.091 3.37248V3.89921C118.076 3.99378 118.066 4.09009 118.066 4.18915V7.65072L105.195 7.65072V5.27605C105.195 5.20644 105.19 5.13807 105.182 5.0707V4.43393C105.182 4.38128 105.177 4.33163 105.169 4.28322V1.90706C105.169 0.89152 104.346 0.0683594 103.33 0.0683594C102.315 0.0683594 101.492 0.89152 101.492 1.90706V18.773C101.492 19.7885 102.315 20.6117 103.33 20.6117C104.346 20.6117 105.169 19.7885 105.169 18.773V16.9657C105.178 16.9076 105.182 16.8467 105.182 16.7826V16.164C105.19 16.0964 105.195 16.0283 105.195 15.9587V11.3723L118.066 11.3723V16.8779C118.066 16.9767 118.076 17.073 118.091 17.1678V17.71C118.091 17.71 118.091 17.712 118.091 17.7133V18.773C118.091 19.7885 118.915 20.6117 119.93 20.6117C120.946 20.6117 121.769 19.7885 121.769 18.773V1.90706C121.769 0.89152 120.946 0.0683594 119.93 0.0683594Z" fill="white"/>
<path d="M56.86 16.9844H55.9802C55.979 16.9844 55.9778 16.9844 55.9765 16.9844L44.8759 16.9844V1.90706C44.8759 0.89152 44.0528 0.0683594 43.0372 0.0683594L43.012 0.0683594C41.9965 0.0683594 41.1733 0.89152 41.1733 1.90706V18.8231C41.1733 19.8387 41.9965 20.6618 43.012 20.6618L56.86 20.6618C57.8756 20.6618 58.6987 19.8387 58.6987 18.8231C58.6987 17.8076 57.8756 16.9844 56.86 16.9844Z" fill="white"/>
<path d="M76.2268 16.9844H75.347C75.3457 16.9844 75.3445 16.9844 75.3432 16.9844L64.0717 16.9844V1.90706C64.0717 0.89152 63.2486 0.0683594 62.233 0.0683594L62.2078 0.0683594C61.1923 0.0683594 60.3691 0.89152 60.3691 1.90706V18.8231C60.3691 19.8387 61.1923 20.6618 62.2078 20.6618L76.2268 20.6618C77.2423 20.6618 78.0655 19.8387 78.0655 18.8231C78.0655 17.8076 77.2423 16.9844 76.2268 16.9844Z" fill="white"/>
<path d="M98.0096 0.321289L81.4232 0.321289C80.4076 0.321289 79.5845 1.14445 79.5845 2.15999V9.5335C79.5845 10.549 80.4076 11.3722 81.4232 11.3722L96.1719 11.3722V16.91L81.4232 16.91C80.4076 16.91 79.5845 17.7332 79.5845 18.7487V18.7729C79.5845 19.7884 80.4076 20.6116 81.4232 20.6116L98.0096 20.6116C98.9935 20.6116 99.7947 19.8381 99.8436 18.8665H99.8483V9.5093C99.8483 8.49376 99.0252 7.6706 98.0096 7.6706L83.2609 7.6706V4.02289L98.0096 4.02289C99.0252 4.02289 99.8483 3.19973 99.8483 2.18419V2.15999C99.8483 1.14445 99.0252 0.321289 98.0096 0.321289Z" fill="white"/>
<path d="M15.6533 0.321289L1.8387 0.321289C0.82316 0.321289 0 1.14445 0 2.15999C0 2.19243 0.00324374 2.22386 0.00474084 2.25605C0.00224566 2.26129 0 2.26653 0 2.27177L0 18.7477C0 19.7632 0.82316 20.5864 1.8387 20.5864L15.6533 20.5864C16.6688 20.5864 17.492 19.7632 17.492 18.7477C17.492 17.7322 16.6688 16.909 15.6533 16.909H14.0349C14.0337 16.909 14.0324 16.909 14.0312 16.909L3.67765 16.909L3.67765 3.99869L15.6533 3.99869C16.6688 3.99869 17.492 3.17553 17.492 2.15999C17.492 1.14445 16.6688 0.321289 15.6533 0.321289Z" fill="white"/>
<path d="M147.388 20.6224C146.361 20.6224 145.528 19.7895 145.528 18.7623V2.19951C145.528 1.17225 146.361 0.339355 147.388 0.339355L157.795 0.339355C160.956 0.339355 163.433 2.72625 163.433 5.77311V5.87866C163.433 9.04205 160.903 11.6156 157.795 11.6156L149.249 11.6156V18.762C149.249 19.7893 148.416 20.6224 147.388 20.6224ZM149.249 7.89526L157.795 7.89526C158.834 7.89526 159.712 6.9718 159.712 5.87891V5.77336C159.712 4.64853 158.748 4.06017 157.795 4.06017L149.249 4.06017V7.89526Z" fill="white"/>
<path d="M210.357 0.17041L193.535 0.17041C192.505 0.17041 191.67 1.0053 191.67 2.03506V17.2145C191.67 17.2145 191.67 17.2165 191.67 17.2175V18.8496C191.67 19.8793 192.505 20.7142 193.535 20.7142C194.564 20.7142 195.399 19.8793 195.399 18.8496V11.385L208.491 11.385V18.8493C208.491 19.8791 209.326 20.714 210.356 20.714C211.386 20.714 212.221 19.8791 212.221 18.8493V17.2177C212.221 17.2177 212.221 17.2157 212.221 17.2145V2.03506C212.221 1.0053 211.386 0.17041 210.356 0.17041H210.357ZM195.4 7.62951V3.92566L208.492 3.92566V7.62951L195.4 7.62951Z" fill="white"/>
<path d="M223.985 0.17041L215.589 0.17041C214.592 0.17041 213.783 0.979348 213.783 1.97717C213.783 1.98565 213.784 1.99389 213.784 2.00262V18.89C213.784 18.8985 213.783 18.9067 213.783 18.9155C213.783 18.9242 213.784 18.9322 213.784 18.9409V19.0005H213.787C213.832 19.9587 214.62 20.7225 215.589 20.7225H223.985C229.651 20.7225 234.26 16.1126 234.26 10.4466C234.26 4.78051 229.651 0.17041 223.985 0.17041ZM223.985 17.1084H217.755V3.78393L223.985 3.78393C227.658 3.78393 230.647 6.77266 230.647 10.4463C230.647 14.12 227.658 17.1084 223.985 17.1084Z" fill="white"/>
<path d="M258.247 3.94929V16.9956L245.201 16.9956V3.94929L258.247 3.94929ZM260.092 0.196533L243.356 0.196533C242.302 0.196533 241.448 1.05063 241.448 2.1041V18.8405C241.448 19.894 242.302 20.7481 243.356 20.7481L260.092 20.7481C261.146 20.7481 262 19.894 262 18.8405V2.10435C262 1.05088 261.146 0.196783 260.092 0.196783V0.196533Z" fill="white"/>
<path d="M239.36 1.85716C239.36 0.83148 238.528 0 237.503 0C236.477 0 235.646 0.83148 235.646 1.85716V18.8576C235.646 19.8833 236.477 20.7147 237.503 20.7147C238.528 20.7147 239.36 19.8833 239.36 18.8576V1.85716Z" fill="white"/>
<path d="M189.656 17.7524L182.703 11.3819H184.311C187.419 11.3819 189.949 8.85282 189.949 5.74382C189.949 2.63483 187.419 0.105713 184.311 0.105713L171.602 0.105713C170.575 0.105713 169.742 0.938604 169.742 1.96587V19.117C169.742 20.1443 170.575 20.9772 171.602 20.9772C172.629 20.9772 173.462 20.1443 173.462 19.117V11.3819L177.195 11.3819L187.142 20.4958C187.499 20.823 187.95 20.9844 188.398 20.9844C188.902 20.9844 189.403 20.7813 189.77 20.3808C190.464 19.6233 190.413 18.4465 189.656 17.7526L189.656 17.7524ZM173.462 3.82603L184.311 3.82603C185.368 3.82603 186.228 4.68637 186.228 5.74357C186.228 6.80078 185.368 7.66112 184.311 7.66112L173.462 7.66112V3.82603Z" fill="white"/>
<circle cx="160.802" cy="17.8669" r="3.0805" fill="#FFBCD9"/>
</svg>
